<mxfile host="app.diagrams.net" modified="2023-01-21T11:13:59.002Z" agent="5.0 (Windows NT 10.0; Win64; x64) AppleWebKit/537.36 (KHTML, like Gecko) Chrome/109.0.0.0 Safari/537.36" etag="o3g1CagA7zcdeZwdZS1O" version="20.8.10" type="github">
  <diagram name="第 1 页" id="eU1ZDgfP_-Zxzr_Fr3Oy">
    <mxGraphModel dx="861" dy="598" grid="1" gridSize="10" guides="1" tooltips="1" connect="1" arrows="1" fold="0" page="1" pageScale="1" pageWidth="827" pageHeight="1169" math="0" shadow="0">
      <root>
        <mxCell id="0" />
        <mxCell id="1" parent="0" />
      </root>
    </mxGraphModel>
  </diagram>
</mxfile>
